<?xml version="1.0" standalone="no"?>
<!DOCTYPE svg PUBLIC "-//W3C//DTD SVG 1.1//EN" "http://www.w3.org/Graphics/SVG/1.1/DTD/svg11.dtd" >
<svg>
<metadata>
Created by FontForge 20090622 at Sat Aug 25 09:02:52 2018
 By deploy user
Copyright 2004 by Ralph Oliver du Carrois, published by primetype GmbH, primetype.com for the primetype library. All Rights Reserved.
</metadata>
<defs>
<font id="MaureaHun-Light" horiz-adv-x="600" >
  <font-face 
    font-family="MaureaHun"
    font-weight="300"
    font-stretch="normal"
    units-per-em="1000"
    panose-1="2 0 4 3 4 0 0 2 0 4"
    ascent="745"
    descent="-255"
    x-height="500"
    cap-height="705"
    bbox="-100 -226 1117 903"
    underline-thickness="50"
    underline-position="-50"
    unicode-range="U+000D-U+FB02"
  />
<missing-glyph horiz-adv-x="530" 
d="M77 0v705h376v-705h-376zM133 56h264v593h-264v-593z" />
    <glyph glyph-name=".notdef" horiz-adv-x="530" 
d="M77 0v705h376v-705h-376zM133 56h264v593h-264v-593z" />
    <glyph glyph-name=".null" horiz-adv-x="0" 
 />
    <glyph glyph-name=".null" horiz-adv-x="0" 
 />
    <glyph glyph-name="nonmarkingreturn" horiz-adv-x="333" 
 />
    <glyph glyph-name="CR" unicode="&#xd;" horiz-adv-x="290" 
 />
    <glyph glyph-name="space" unicode=" " horiz-adv-x="290" 
 />
    <glyph glyph-name="exclam" unicode="!" horiz-adv-x="270" 
d="M166 212h-62v493h62v-493zM173 0h-76v93h76v-93z" />
    <glyph glyph-name="quotedbl" unicode="&#x22;" horiz-adv-x="392" 
d="M307 720l-13 -245h-50l-13 245h76zM161 720l-13 -245h-50l-13 245h76z" />
    <glyph glyph-name="numbersign" unicode="#" horiz-adv-x="595" 
d="M538 190h-117v-190h-59v190h-142v-190h-58v190h-107v55h107v187h-107v56h107v177h58v-177h142v177h59v-177h117v-56h-117v-187h117v-55zM362 245v187h-142v-187h142z" />
    <glyph glyph-name="dollar" unicode="$" horiz-adv-x="601" 
d="M511 172q0 -81 -48 -127t-127 -58v-112h-58v109q-97 4 -188 70l30 49q86 -64 171 -64q63 0 108.5 32.5t45.5 97.5q0 15 -2 27.5t-8.5 23.5l-11.5 19t-17.5 16.5t-19 13.5t-24 12.5t-24.5 11t-28.5 12l-29.5 11.5q-87 35 -128.5 74t-41.5 115q0 70 47.5 112.5t120.5 54.5
v113h58v-109q83 -4 166 -59l-32 -51q-77 55 -147 55q-62 0 -104.5 -28.5t-42.5 -88.5q0 -46 30.5 -72.5t99.5 -53.5l30.5 -12l31.5 -12.5t27.5 -12.5t28 -15t23.5 -16t22.5 -19.5t16.5 -22t14.5 -27.5t7 -31.5t3.5 -37.5z" />
    <glyph glyph-name="percent" unicode="%" horiz-adv-x="786" 
d="M761 178q0 -93 -46 -140.5t-110 -47.5q-66 0 -110.5 47t-44.5 141q0 93 45 140t110 47q67 0 111.5 -46.5t44.5 -140.5zM583 720l-320 -720h-61l321 720h60zM336 536q0 -93 -45.5 -140.5t-109.5 -47.5q-66 0 -111 47t-45 141q0 93 45 140t110 47q67 0 111.5 -46.5
t44.5 -140.5zM703 178q0 70 -28.5 103t-69.5 33q-40 0 -68.5 -32.5t-28.5 -103.5q0 -70 28.5 -103.5t68.5 -33.5q41 0 69.5 33t28.5 104zM278 536q0 70 -28.5 103t-69.5 33q-40 0 -68.5 -32.5t-28.5 -103.5q0 -70 29 -103.5t69 -33.5q41 0 69 33t28 104z" />
    <glyph glyph-name="ampersand" unicode="&#x26;" horiz-adv-x="678" 
d="M653 0h-83l-90 97q-72 -114 -193 -114q-89 0 -146.5 50t-57.5 137q0 62 37.5 106.5t102.5 85.5l-17 17l-19.5 19.5t-17.5 19t-18 22l-13.5 21.5t-13 25.5t-7 24.5t-3.5 28q0 71 48.5 118.5t132.5 47.5q71 0 119.5 -43t48.5 -111q0 -94 -151 -197l157 -160l70 159h63
l-93 -201zM402 547q0 48 -32.5 77.5t-80.5 29.5q-51 0 -82.5 -33t-31.5 -82q0 -8 2 -17t6.5 -18.5l8 -16.5t12 -17.5t12.5 -16t15 -17l14.5 -15l15.5 -15.5l13 -13q128 81 128 154zM441 139l-181 185q-31 -19 -52.5 -35.5t-42.5 -49.5t-21 -70q0 -63 41.5 -99t107.5 -36
q89 0 148 105z" />
    <glyph glyph-name="quotesingle" unicode="'" horiz-adv-x="246" 
d="M161 720l-13 -245h-50l-13 245h76z" />
    <glyph glyph-name="parenleft" unicode="(" horiz-adv-x="298" 
d="M276 -130h-51q-73 92 -119 226.5t-46 258.5q0 127 44.5 261t120.5 224h51q-148 -216 -148 -485q0 -252 148 -485z" />
    <glyph glyph-name="parenright" unicode=")" horiz-adv-x="298" 
d="M238 355q0 -124 -46 -258.5t-119 -226.5h-51q148 233 148 485q0 269 -148 485h51q76 -90 120.5 -224t44.5 -261z" />
    <glyph glyph-name="asterisk" unicode="*" horiz-adv-x="480" 
d="M435 557l-157 -35l111 -129l-55 -40l-93 146l-95 -147l-53 41l109 132l-154 31l20 64l151 -56l-13 164h67l-11 -164l154 56z" />
    <glyph glyph-name="plus" unicode="+" 
d="M515 306h-186v-187h-58v187h-186v54h186v187h58v-187h186v-54z" />
    <glyph glyph-name="comma" unicode="," horiz-adv-x="270" 
d="M178 93l-57 -245h-52l31 245h78z" />
    <glyph glyph-name="hyphen" unicode="-" horiz-adv-x="500" 
d="M420 305h-340v55h340v-55z" />
    <glyph glyph-name="period" unicode="." horiz-adv-x="270" 
d="M173 0h-76v93h76v-93z" />
    <glyph glyph-name="slash" unicode="/" horiz-adv-x="298" 
d="M292 780l-229 -840h-57l229 840h57z" />
    <glyph glyph-name="zero" unicode="0" horiz-adv-x="561" 
d="M531 269q0 -135 -69.5 -210t-178.5 -75t-178.5 73.5t-69.5 211.5q0 133 73 205t175 72q106 0 177 -71.5t71 -205.5zM467 269q0 107 -52.5 165.5t-131.5 58.5q-78 0 -131 -58.5t-53 -165.5q0 -109 51.5 -170.5t132.5 -61.5q80 0 132 62t52 170z" />
    <glyph glyph-name="one" unicode="1" horiz-adv-x="463" 
d="M418 0h-329v53h147v409l-158 -97l-28 50l195 115h53v-477h120v-53z" />
    <glyph glyph-name="two" unicode="2" horiz-adv-x="483" 
d="M428 0h-400v50l202 151q68 51 98 86.5t30 81.5q0 60 -39.5 92t-104.5 32q-73 0 -151 -66l-34 42q29 23 51 37t61.5 27t82.5 13q90 0 144 -47.5t54 -126.5q0 -56 -29 -99t-95 -92l-170 -125h300v-56z" />
    <glyph glyph-name="three" unicode="3" horiz-adv-x="493" 
d="M438 62q0 -92 -66.5 -145t-147.5 -53q-101 0 -174 41l25 48q68 -36 142 -36q56 0 106 37t50 105q0 75 -42 111t-100 36h-67v51h68q53 0 91.5 35t38.5 85q0 61 -39.5 88.5t-99.5 27.5q-76 0 -144 -54l-32 43q83 64 182 64q91 0 144 -45t53 -122q0 -58 -37.5 -95.5
t-78.5 -48.5q18 -4 37 -14t41 -28.5t36 -52.5t14 -78z" />
    <glyph glyph-name="four" unicode="4" horiz-adv-x="551" 
d="M526 0h-94v-132h-62v132h-340v50l351 485h51v-480h94v-55zM371 55v374l-273 -374h273z" />
    <glyph glyph-name="five" unicode="5" horiz-adv-x="481" 
d="M431 71q0 -98 -63 -152.5t-153 -54.5q-92 0 -168 42l24 48q60 -37 134 -37q68 0 115 40.5t47 113.5q0 70 -37.5 112.5t-96.5 42.5q-57 0 -115 -42h-44l18 346h334v-53h-276l-12 -236q52 38 109 38q81 0 132.5 -57.5t51.5 -150.5z" />
    <glyph glyph-name="six" unicode="6" horiz-adv-x="509" 
d="M464 200q0 -91 -55.5 -153.5t-141.5 -62.5q-217 0 -217 299q0 172 66 277.5t189 105.5q63 0 128 -37l-26 -49q-51 33 -107 33q-87 0 -135.5 -82.5t-50.5 -204.5q32 40 75.5 63t89.5 23q78 0 131.5 -57.5t53.5 -154.5zM400 200q0 78 -37.5 119t-96.5 41q-86 0 -154 -91
q1 -119 42 -176.5t109 -57.5q55 0 96 41.5t41 123.5z" />
    <glyph glyph-name="seven" unicode="7" horiz-adv-x="491" 
d="M441 482l-261 -614l-63 23l256 581h-321v58h389v-48z" />
    <glyph glyph-name="eight" unicode="8" horiz-adv-x="522" 
d="M477 167q0 -87 -64 -135t-151 -48q-92 0 -154.5 47t-62.5 132q0 40 13 72.5t36.5 53t39 31t37.5 20.5q-108 50 -108 157q0 81 61 125t139 44t138 -43t60 -124q0 -107 -115 -167q24 -10 39.5 -18.5t40 -28t38 -49.5t13.5 -69zM398 497q0 57 -38.5 87t-97.5 30t-97.5 -32
t-38.5 -87q0 -58 42 -89t126 -54q48 27 76 60.5t28 84.5zM414 167q0 33 -12.5 57t-42.5 41.5t-58.5 28t-79.5 24.5q-35 -19 -56 -34.5t-39 -47.5t-18 -73q0 -58 46 -92.5t108 -34.5q60 0 106 35.5t46 95.5z" />
    <glyph glyph-name="nine" unicode="9" horiz-adv-x="509" 
d="M459 250q0 -115 -25 -199t-83 -135.5t-146 -51.5q-70 0 -125 31l24 49q56 -27 101 -27q49 0 86.5 24t60 66t33.5 94t11 112q-22 -37 -65 -64t-99 -27q-76 0 -131.5 57t-55.5 152q0 89 55.5 152t145.5 63q99 0 156 -71.5t57 -224.5zM397 271q0 113 -40 168.5t-107 55.5
q-59 0 -100 -41t-41 -123q0 -77 38 -117t97 -40q85 0 153 97z" />
    <glyph glyph-name="colon" unicode=":" horiz-adv-x="270" 
d="M173 397h-76v93h76v-93zM173 0h-76v93h76v-93z" />
    <glyph glyph-name="semicolon" unicode=";" horiz-adv-x="270" 
d="M173 396h-76v94h76v-94zM178 93l-57 -245h-52l31 245h78z" />
    <glyph glyph-name="less" unicode="&#x3c;" 
d="M510 110l-420 195v55l420 199v-65l-350 -158l350 -160v-66z" />
    <glyph glyph-name="equal" unicode="=" 
d="M513 405h-426v55h426v-55zM513 205h-426v55h426v-55z" />
    <glyph glyph-name="greater" unicode="&#x3e;" 
d="M510 307l-420 -197v65l350 158l-350 161v65l420 -197v-55z" />
    <glyph glyph-name="question" unicode="?" horiz-adv-x="432" 
d="M382 553q0 -39 -17 -72t-41 -57l-48 -47.5t-41 -54t-17 -66.5v-47h-62v52q0 42 16.5 76.5t40.5 59l48 47t40.5 50.5t16.5 59q0 56 -32 85.5t-86 29.5q-67 0 -130 -50l-30 45q77 58 168 58q77 0 125.5 -44t48.5 -124zM225 0h-76v93h76v-93z" />
    <glyph glyph-name="at" unicode="@" horiz-adv-x="1048" 
d="M968 323q0 -82 -23 -153t-74 -120t-121 -49q-52 0 -83.5 32t-34.5 73q-50 -90 -144 -90q-81 0 -128 54.5t-47 148.5q0 112 72.5 187.5t186.5 75.5q39 0 80.5 -14.5t65.5 -34.5l-43 -284q-5 -33 13.5 -64.5t61.5 -31.5q72 0 113 78t41 192q0 154 -96 243t-253 89
q-179 0 -295 -121t-116 -307q0 -117 54.5 -209.5t143 -140.5t193.5 -48q100 0 196 34l16 -52q-98 -34 -204 -34q-207 0 -335 124.5t-128 325.5q0 133 59.5 242.5t168.5 173.5t247 64q189 0 301 -105.5t112 -278.5zM652 404q-12 7 -38 15t-46 8q-85 0 -138 -57t-53 -149
q0 -71 32 -110t92 -39q32 0 63.5 21t48.5 54z" />
    <glyph glyph-name="A" unicode="A" horiz-adv-x="639" 
d="M614 0h-71l-67 191h-308l-73 -191h-70l277 705h56zM458 242l-84 239l-47 142q-28 -85 -50 -142l-90 -239h271z" />
    <glyph glyph-name="B" unicode="B" horiz-adv-x="577" 
d="M527 194q0 -99 -61 -146.5t-187 -47.5h-194v705h175q230 0 230 -183q0 -56 -34.5 -99t-86.5 -55q65 -12 111.5 -55t46.5 -119zM425 521q0 41 -13.5 68t-39.5 40t-53.5 18t-64.5 5h-107v-262h132q59 0 102.5 33t43.5 98zM462 194q0 75 -52.5 109.5t-126.5 34.5h-136v-285
h128q100 0 143.5 35.5t43.5 105.5z" />
    <glyph glyph-name="C" unicode="C" horiz-adv-x="582" 
d="M542 48q-88 -64 -195 -64q-134 0 -213 101.5t-79 268.5q0 161 79.5 264t221.5 103q98 0 184 -61l-32 -50q-73 55 -152 55q-113 0 -174 -85t-61 -225q0 -139 62 -227t164 -88q86 0 163 57z" />
    <glyph glyph-name="D" unicode="D" horiz-adv-x="654" 
d="M600 352q0 -352 -354 -352h-161v705h161q179 0 266.5 -83.5t87.5 -269.5zM535 351q0 156 -68.5 228.5t-219.5 72.5h-100v-599h103q141 0 213 75.5t72 222.5z" />
    <glyph glyph-name="E" unicode="E" horiz-adv-x="528" 
d="M468 0h-383v705h373v-53h-311v-263h288v-53h-288v-283h321v-53z" />
    <glyph glyph-name="F" unicode="F" horiz-adv-x="508" 
d="M458 652h-311v-269h278v-53h-278v-330h-62v705h373v-53z" />
    <glyph glyph-name="G" unicode="G" horiz-adv-x="630" 
d="M570 54q-108 -70 -222 -70q-133 0 -213 99.5t-80 269.5q0 184 87.5 276t222.5 92q109 0 190 -65l-32 -48q-74 58 -157 58q-109 0 -177.5 -74.5t-68.5 -238.5q0 -148 65 -232t167 -84q88 0 157 43v223h-159v54h220v-303z" />
    <glyph glyph-name="H" unicode="H" horiz-adv-x="640" 
d="M556 0h-63v333h-346v-333h-62v705h62v-318h346v318h63v-705z" />
    <glyph glyph-name="I" unicode="I" horiz-adv-x="232" 
d="M147 0h-62v705h62v-705z" />
    <glyph glyph-name="J" unicode="J" horiz-adv-x="386" 
d="M301 250q0 -134 -43 -199t-157 -65q-62 0 -101 17l20 52q32 -13 84 -13q42 0 69.5 14.5t41 43t18.5 61t5 79.5v465h63v-455z" />
    <glyph glyph-name="K" unicode="K" horiz-adv-x="565" 
d="M545 0h-85l-313 353v-353h-62v705h62v-313l299 313h80l-317 -329z" />
    <glyph glyph-name="L" unicode="L" horiz-adv-x="479" 
d="M466 0h-381v705h62v-649h319v-56z" />
    <glyph glyph-name="M" unicode="M" horiz-adv-x="809" 
d="M724 0h-63v643q-33 -110 -52 -162l-177 -481h-58l-177 481l-52 156v-637h-60v705h97l177 -483l46 -138q29 92 46 138l177 483h96v-705z" />
    <glyph glyph-name="N" unicode="N" horiz-adv-x="652" 
d="M567 0h-85l-260 473q-15 27 -34 65.5t-30 63.5l-12 25v-627h-61v705h84l260 -472q16 -29 34.5 -67.5t29.5 -63.5l11 -24v627h63v-705z" />
    <glyph glyph-name="O" unicode="O" horiz-adv-x="712" 
d="M657 352q0 -161 -81 -264.5t-221 -103.5q-139 0 -219.5 102.5t-80.5 265.5q0 162 81.5 265.5t220.5 103.5t219.5 -102.5t80.5 -266.5zM592 352q0 144 -64 229t-172 85q-107 0 -171.5 -85t-64.5 -229q0 -141 64.5 -227t171.5 -86q108 0 172 86t64 227z" />
    <glyph glyph-name="P" unicode="P" horiz-adv-x="557" 
d="M502 494q0 -106 -65 -162.5t-174 -56.5h-116v-275h-62v705h168q115 0 182 -52.5t67 -158.5zM437 494q0 83 -51 120.5t-136 37.5h-103v-323h108q83 0 132.5 40t49.5 125z" />
    <glyph glyph-name="Q" unicode="Q" horiz-adv-x="712" 
d="M657 352q0 -161 -81 -264.5t-221 -103.5q-139 0 -219.5 102.5t-80.5 265.5q0 162 81.5 265.5t220.5 103.5t219.5 -102.5t80.5 -266.5zM604 -130l-19 -58l-275 78l14 48zM592 352q0 144 -64 229t-172 85q-107 0 -171.5 -85t-64.5 -229q0 -141 64.5 -227t171.5 -86
q108 0 172 86t64 227z" />
    <glyph glyph-name="R" unicode="R" horiz-adv-x="587" 
d="M537 0h-76l-201 313h-113v-313h-62v705h187q114 0 174 -50.5t60 -141.5q0 -86 -50 -137t-127 -58zM441 513q0 65 -42 102t-120 37h-132v-286h127q167 0 167 147z" />
    <glyph glyph-name="S" unicode="S" horiz-adv-x="569" 
d="M509 180q0 -97 -67 -147t-171 -49q-123 0 -224 75l32 51q89 -71 190 -71q73 0 124 34.5t51 103.5q0 17 -3 32t-10.5 27.5l-13.5 22t-21 19.5t-22 15.5t-27.5 14.5l-27.5 12t-31 12.5t-30 11.5l-43.5 17t-38 17t-36.5 21l-28 24t-24 30.5t-13 37t-6 47.5q0 89 66 136
t167 47q104 0 194 -62l-31 -50q-78 57 -164 57q-70 0 -118 -32t-48 -97q0 -27 11 -47t31 -34t44.5 -25t54.5 -23l9 -3q99 -39 128 -56q96 -58 96 -169z" />
    <glyph glyph-name="T" unicode="T" horiz-adv-x="571" 
d="M536 649h-219v-649h-63v649h-219v56h501v-56z" />
    <glyph glyph-name="U" unicode="U" horiz-adv-x="632" 
d="M548 253q0 -133 -61.5 -201t-170.5 -68q-111 0 -171 67.5t-60 201.5v452h63v-463q0 -97 41.5 -149.5t126.5 -52.5q84 0 126.5 53.5t42.5 148.5v463h63v-452z" />
    <glyph glyph-name="V" unicode="V" horiz-adv-x="645" 
d="M601 705l-237 -705h-79l-240 705h71l169 -503l42 -139q26 92 41 139l164 503h69z" />
    <glyph glyph-name="W" unicode="W" horiz-adv-x="935" 
d="M885 705l-174 -705h-85l-128 486l-31 145q-16 -84 -32 -146l-128 -485h-86l-171 705h69l117 -489l30 -149q16 86 33 149l129 489h82l126 -489l34 -151q17 88 32 151l118 489h65z" />
    <glyph glyph-name="X" unicode="X" horiz-adv-x="640" 
d="M601 0h-81l-193 313l-210 -313h-77l250 367l-214 338h80l174 -282l186 282h77l-225 -336z" />
    <glyph glyph-name="Y" unicode="Y" horiz-adv-x="621" 
d="M586 705l-236 -406v-299h-64v299l-251 406h74l210 -345l196 345h71z" />
    <glyph glyph-name="Z" unicode="Z" horiz-adv-x="565" 
d="M515 656l-391 -600h387v-56h-466v49l391 600h-351v56h430v-49z" />
    <glyph glyph-name="bracketleft" unicode="[" horiz-adv-x="298" 
d="M278 -130h-178v970h178v-54h-120v-862h120v-54z" />
    <glyph glyph-name="backslash" unicode="\" horiz-adv-x="298" 
d="M292 -60h-57l-229 840h57z" />
    <glyph glyph-name="bracketright" unicode="]" horiz-adv-x="298" 
d="M198 -130h-178v54h120v862h-120v54h178v-970z" />
    <glyph glyph-name="asciicircum" unicode="^" horiz-adv-x="510" 
d="M454 440h-64l-134 283l-138 -283h-63l171 340h59z" />
    <glyph glyph-name="underscore" unicode="_" horiz-adv-x="500" 
d="M502 -200h-504v56h504v-56z" />
    <glyph glyph-name="grave" unicode="`" horiz-adv-x="259" 
d="M229 598h-52l-147 147h91z" />
    <glyph glyph-name="a" unicode="a" horiz-adv-x="498" 
d="M421 0h-51q0 2 -3.5 31.5t-3.5 32.5q-52 -75 -152 -75q-71 0 -116 39.5t-45 106.5q0 80 62 123t186 43h59v46q0 57 -28.5 84.5t-76.5 27.5q-72 0 -158 -41l-21 50q84 43 169 43q176 0 176 -167v-240q0 -10 1.5 -53t1.5 -51zM357 113v142h-48q-102 0 -148.5 -28.5
t-46.5 -89.5q0 -42 32 -69t82 -27q40 0 74 21t55 51z" />
    <glyph glyph-name="b" unicode="b" horiz-adv-x="533" 
d="M481 252q0 -115 -51.5 -189t-145.5 -74q-97 0 -151 68l-5 -57h-51q3 66 3 94v626h61v-289q60 80 148 80t140 -70t52 -189zM417 250q0 109 -40.5 159.5t-100.5 50.5q-77 0 -135 -91v-269q29 -30 57 -45t71 -15q66 0 107 56.5t41 153.5z" />
    <glyph glyph-name="c" unicode="c" horiz-adv-x="476" 
d="M436 462l-28 -48q-56 43 -126 43q-69 0 -116 -52.5t-47 -157.5q0 -95 45.5 -149.5t116.5 -54.5q62 0 121 41l28 -48q-68 -47 -142 -47q-113 0 -173 70.5t-60 187.5q0 122 63.5 193t173.5 71q78 0 144 -49z" />
    <glyph glyph-name="d" unicode="d" horiz-adv-x="538" 
d="M462 0h-52l-5 79q-62 -90 -156 -90q-96 0 -146.5 74t-50.5 189q0 118 59 188.5t147 70.5q86 0 140 -56v265h61v-626q0 -28 3 -94zM398 130v272q-19 19 -33 29.5t-39 19.5t-55 9q-60 0 -107.5 -51.5t-47.5 -158.5q0 -95 39.5 -152.5t108.5 -57.5q77 0 134 90z" />
    <glyph glyph-name="e" unicode="e" horiz-adv-x="525" 
d="M473 231h-353q4 -92 51 -141t115 -49q75 0 141 51l30 -42q-78 -61 -171 -61q-101 0 -166 67.5t-65 188.5q0 127 62.5 196.5t151.5 69.5q204 0 204 -280zM410 281q-3 180 -141 180q-62 0 -102.5 -46.5t-46.5 -133.5h290z" />
    <glyph glyph-name="f" unicode="f" horiz-adv-x="297" 
d="M322 707l-19 -51q-23 10 -44 10q-52 0 -74.5 -26.5t-22.5 -81.5v-58h122v-51h-122v-449h-61v449h-86v51h86v53q0 167 161 167q28 0 60 -13z" />
    <glyph glyph-name="g" unicode="g" horiz-adv-x="526" 
d="M492 512l-13 -56l-92 2q29 -19 46.5 -51t17.5 -68q0 -87 -56.5 -132t-134.5 -45q-47 0 -92 18q-25 -19 -25 -47q0 -35 70 -47l131 -22q131 -23 131 -139q0 -69 -61 -109.5t-145 -40.5q-102 0 -164 34.5t-62 110.5q0 46 29 79.5t69 48.5q-57 23 -57 76q0 40 50 75
q-70 45 -70 136q0 78 52 127t140 49q32 0 57 -6zM391 339q0 62 -37.5 92t-97.5 30q-61 0 -96 -34t-35 -91q0 -60 35.5 -92t96.5 -32q60 0 97 33t37 94zM412 -75q0 70 -84 84l-145 23q-82 -33 -82 -105q0 -53 48.5 -77.5t117.5 -24.5q62 0 103.5 28t41.5 72z" />
    <glyph glyph-name="h" unicode="h" horiz-adv-x="530" 
d="M450 0h-61v318q0 141 -118 141q-76 0 -130 -81v-378h-61v720h61v-282q54 73 143 73q90 0 128 -51.5t38 -146.5v-313z" />
    <glyph glyph-name="i" unicode="i" horiz-adv-x="231" 
d="M151 643h-71v77h71v-77zM146 0h-61v500h61v-500z" />
    <glyph glyph-name="j" unicode="j" horiz-adv-x="240" 
d="M160 643h-71v77h71v-77zM155 33q0 -108 -54.5 -163t-150.5 -74l-10 55q154 30 154 173v476h61v-467z" />
    <glyph glyph-name="k" unicode="k" horiz-adv-x="467" 
d="M447 0h-78l-228 271v-271h-61v720h61v-422l200 202h78l-215 -212z" />
    <glyph glyph-name="l" unicode="l" horiz-adv-x="221" 
d="M141 0h-61v720h61v-720z" />
    <glyph glyph-name="m" unicode="m" horiz-adv-x="820" 
d="M740 0h-61v318q0 141 -113 141q-42 0 -75.5 -27.5t-53.5 -62.5q3 -18 3 -33v-336h-61v325q0 63 -28.5 98.5t-84.5 35.5q-30 0 -56.5 -14.5t-39.5 -29t-29 -37.5v-378h-61v408q0 41 -3 92h51l5 -69q59 80 144 80q104 0 144 -90q61 90 156 90q163 0 163 -197v-314z" />
    <glyph glyph-name="n" unicode="n" horiz-adv-x="530" 
d="M450 0h-61v317q0 142 -118 142q-76 0 -130 -81v-378h-61v408q0 41 -3 92h51l5 -69q55 80 150 80q167 0 167 -198v-313z" />
    <glyph glyph-name="o" unicode="o" horiz-adv-x="555" 
d="M501 252q0 -114 -56 -188.5t-167 -74.5q-109 0 -166 74.5t-57 188.5q0 109 58.5 184t164.5 75q110 0 166.5 -73.5t56.5 -185.5zM437 252q0 94 -41 151t-118 57q-75 0 -117 -57.5t-42 -150.5q0 -95 41 -153.5t118 -58.5q78 0 118.5 58.5t40.5 153.5z" />
    <glyph glyph-name="p" unicode="p" horiz-adv-x="536" 
d="M481 255q0 -119 -52.5 -192.5t-146.5 -73.5q-92 0 -141 60v-249h-61v606q0 28 -3 94h51l5 -76q31 40 66.5 63.5t90.5 23.5q89 0 140 -71t51 -185zM417 250q0 104 -38.5 157t-102.5 53q-74 0 -135 -89v-271q54 -60 126 -60q65 0 107.5 53.5t42.5 156.5z" />
    <glyph glyph-name="q" unicode="q" horiz-adv-x="541" 
d="M464 500q-3 -66 -3 -94v-606h-61v269q-59 -80 -150 -80q-94 0 -144.5 71t-50.5 193q0 114 57.5 186t145.5 72q94 0 150 -66l5 55h51zM400 130v270q-53 60 -128 60q-64 0 -108.5 -54.5t-44.5 -155.5q0 -104 42.5 -157t106.5 -53q76 0 132 90z" />
    <glyph glyph-name="r" unicode="r" horiz-adv-x="349" 
d="M343 502l-17 -63q-25 14 -54 14q-43 0 -73.5 -24.5t-57.5 -71.5v-357h-61v409q0 40 -3 91h49l6 -83q49 94 153 94q33 0 58 -9z" />
    <glyph glyph-name="s" unicode="s" horiz-adv-x="437" 
d="M388 128q0 -67 -52 -103t-118 -36q-43 0 -79 9t-56.5 19t-47.5 27l31 47q73 -51 149 -51q48 0 78.5 25t30.5 60q0 45 -27 65.5t-90 39.5q-74 22 -114.5 54t-40.5 94q0 64 49.5 98.5t121.5 34.5q87 0 158 -48l-29 -47q-63 44 -131 44q-50 0 -77.5 -20.5t-27.5 -57.5
q0 -36 23.5 -54.5t84.5 -37.5q30 -9 48.5 -16t43 -20.5t38.5 -29t24 -40.5t10 -56z" />
    <glyph glyph-name="t" unicode="t" horiz-adv-x="322" 
d="M314 0q-36 -9 -60 -9q-86 0 -122.5 44.5t-36.5 129.5v284h-88v51h88v135h61v-135h140v-51h-140v-289q0 -58 22.5 -86.5t75.5 -28.5q16 0 46 7z" />
    <glyph glyph-name="u" unicode="u" horiz-adv-x="520" 
d="M443 0h-53l-4 63q-54 -74 -143 -74q-81 0 -122 47t-41 127v337h61v-327q0 -68 27.5 -100.5t85.5 -32.5q38 0 72 23.5t53 54.5v382h61v-410q0 -39 3 -90z" />
    <glyph glyph-name="v" unicode="v" horiz-adv-x="486" 
d="M461 500l-181 -500h-70l-185 500h67l120 -332l34 -108q23 76 34 108l118 332h63z" />
    <glyph glyph-name="w" unicode="w" horiz-adv-x="746" 
d="M716 500l-146 -500h-78l-86 297l-33 125q-19 -77 -33 -125l-89 -297h-77l-144 500h65l92 -319l28 -114q18 72 30 114l94 319h71l94 -319l29 -114q16 70 29 114l94 319h60z" />
    <glyph glyph-name="x" unicode="x" horiz-adv-x="485" 
d="M465 0h-77l-144 213l-150 -213h-74l185 257l-169 243h78l130 -191l132 191h74l-166 -236z" />
    <glyph glyph-name="y" unicode="y" horiz-adv-x="473" 
d="M448 500l-174 -537q-24 -75 -71.5 -112.5t-132.5 -52.5l-10 53q118 22 149 110l14 40l-198 499h68l114 -301l45 -128l133 429h63z" />
    <glyph glyph-name="z" unicode="z" horiz-adv-x="432" 
d="M388 455l-270 -402h261v-53h-339v45l269 402h-246v53h325v-45z" />
    <glyph glyph-name="braceleft" unicode="{" horiz-adv-x="298" 
d="M298 -130q-91 0 -137.5 46.5t-46.5 150.5v130q0 32 -9.5 57t-23.5 38t-28 21.5t-23 10.5l-10 2v60l10 2.5t22.5 10.5t29 21.5t22.5 37.5t10 57v123q0 202 184 202v-51q-71 0 -99 -39.5t-28 -109.5v-133q0 -58 -28 -98.5t-72 -53.5q45 -12 72.5 -51t27.5 -99v-140
q0 -71 27.5 -107.5t99.5 -36.5v-51z" />
    <glyph glyph-name="bar" unicode="|" horiz-adv-x="280" 
d="M169 -100h-58v910h58v-910z" />
    <glyph glyph-name="braceright" unicode="}" horiz-adv-x="298" 
d="M278 326l-10 -2.5t-22.5 -10t-29 -21t-22.5 -38t-10 -57.5v-130q0 -104 -46 -150.5t-137 -46.5v51q72 0 99.5 36t27.5 107v141q0 60 27.5 99t72.5 51q-44 13 -72 53.5t-28 98.5v133q0 70 -28.5 109.5t-99.5 39.5v51q184 0 184 -202v-123q0 -32 9.5 -56.5t23.5 -37.5
t28 -21.5t23 -11.5l10 -2v-60z" />
    <glyph glyph-name="asciitilde" unicode="~" 
d="M512 339q-58 -56 -126 -56q-35 0 -85 23.5t-83 23.5q-31 0 -49.5 -9t-48.5 -34l-32 45q65 54 130 54q40 0 91.5 -23.5t80.5 -23.5q27 0 44.5 9.5t42.5 31.5z" />
    <glyph glyph-name="uni00A0" unicode="&#xa0;" horiz-adv-x="290" 
 />
    <glyph glyph-name="exclamdown" unicode="&#xa1;" horiz-adv-x="270" 
d="M173 407h-76v93h76v-93zM167 -205h-62v493h62v-493z" />
    <glyph glyph-name="cent" unicode="&#xa2;" horiz-adv-x="476" 
d="M437 462l-29 -49q-56 43 -126 43q-69 0 -115.5 -52t-46.5 -157q0 -95 45 -149t116 -54q63 0 121 40l29 -48q-53 -37 -119 -45v-116h-58v116q-97 11 -148 80t-51 176q0 111 53 180t146 81v122h58v-120q70 -7 125 -48z" />
    <glyph glyph-name="sterling" unicode="&#xa3;" horiz-adv-x="601" 
d="M546 612l-31 -45q-67 56 -135 56q-57 0 -96.5 -35.5t-39.5 -96.5v-117h244v-54h-244v-265h281v-55h-468v55h125v265h-125v54h125v99q0 103 57 153t144 50q88 0 163 -64z" />
    <glyph glyph-name="currency" unicode="&#xa4;" horiz-adv-x="520" 
d="M480 159l-44 -43l-56 56q-51 -39 -120 -39t-121 41l-56 -55l-42 41l56 56q-38 52 -38 118t38 118l-57 57l44 44l57 -57q54 39 119 39q64 0 118 -39l57 57l43 -41l-57 -57q40 -53 40 -121q0 -66 -38 -118zM400 334q0 61 -41 103.5t-99 42.5q-59 0 -99.5 -43t-40.5 -103
t40.5 -103t99.5 -43q60 0 100 43t40 103z" />
    <glyph glyph-name="yen" unicode="&#xa5;" horiz-adv-x="601" 
d="M553 665l-196 -325h156v-55h-173v-99h173v-56h-173v-130h-64v130h-171v56h171v99h-171v55h153l-209 325h71l190 -297l174 297h69z" />
    <glyph glyph-name="brokenbar" unicode="&#xa6;" horiz-adv-x="258" 
d="M158 450h-58v360h58v-360zM158 -100h-58v360h58v-360z" />
    <glyph glyph-name="section" unicode="&#xa7;" horiz-adv-x="470" 
d="M410 303q0 -39 -30 -73.5t-70 -58.5q45 -20 67 -46.5t22 -72.5q0 -63 -49.5 -98t-115.5 -35q-41 0 -77 10.5t-52.5 20.5t-44.5 30l30 45q69 -55 142 -55q48 0 75.5 23.5t27.5 56.5q0 40 -23.5 58t-83.5 39q-35 12 -58 22.5t-47 28t-36 42.5t-12 57q0 74 102 131
q-90 45 -90 119q0 61 50 95t118 34q76 0 155 -59l-32 -44q-36 28 -62 40t-63 12q-46 0 -74 -21t-28 -54q0 -34 22.5 -54t79.5 -41q2 -1 22.5 -8.5t24 -9l21 -9t22 -10.5l18 -11.5t17.5 -14.5t12.5 -16.5t11 -20.5t5.5 -23.5t3 -28.5zM347 302q0 15 -3 27.5t-11.5 22
t-14.5 15.5t-21 12.5l-22 9.5t-26 9l-25 8q-86 -45 -86 -107q0 -17 6 -31.5t13 -23t23.5 -17.5t24 -12.5t30 -11.5t27.5 -10q85 48 85 109z" />
    <glyph glyph-name="dieresis" unicode="&#xa8;" horiz-adv-x="330" 
d="M300 628h-71v77h71v-77zM101 628h-71v77h71v-77z" />
    <glyph glyph-name="copyright" unicode="&#xa9;" horiz-adv-x="810" 
d="M765 345q0 -107 -50.5 -189.5t-132 -124t-177.5 -41.5q-150 0 -255 96t-105 259q0 160 105.5 257.5t254.5 97.5q148 0 254 -98t106 -257zM709 345q0 137 -88 221.5t-216 84.5t-216 -83.5t-88 -222.5q0 -138 88 -222t216 -84t216 84.5t88 221.5zM518 194q-49 -34 -109 -34
q-72 0 -117 49.5t-45 135.5q0 81 45.5 132.5t121.5 51.5q57 0 104 -35l-23 -35q-39 28 -81 28q-56 0 -88 -37.5t-32 -103.5q0 -65 31.5 -104.5t83.5 -39.5q49 0 88 28z" />
    <glyph glyph-name="ordfeminine" unicode="&#xaa;" horiz-adv-x="520" 
d="M412 310h-45q0 2 -3.5 25t-3.5 26q-42 -60 -127 -60q-60 0 -98.5 32t-38.5 85q0 134 211 134h46v31q0 45 -23 67t-62 22q-65 0 -135 -31l-17 43q72 35 144 35q149 0 149 -134v-192q0 -8 1.5 -42.5t1.5 -40.5zM408 0h-300v53h300v-53zM353 404v108h-36q-86 0 -123.5 -22
t-37.5 -70q0 -31 25 -51.5t67 -20.5q64 0 105 56z" />
    <glyph glyph-name="guillemotleft" unicode="&#xab;" horiz-adv-x="521" 
d="M421 112h-49l-107 227l107 227h49l-85 -227zM258 112h-49l-107 227l107 227h49l-86 -227z" />
    <glyph glyph-name="logicalnot" unicode="&#xac;" horiz-adv-x="668" 
d="M578 119h-58v200h-430v56h488v-256z" />
    <glyph glyph-name="uni00AD" unicode="&#xad;" horiz-adv-x="500" 
d="M420 305h-340v55h340v-55z" />
    <glyph glyph-name="registered" unicode="&#xae;" horiz-adv-x="810" 
d="M765 345q0 -107 -50.5 -189.5t-132 -124t-177.5 -41.5q-150 0 -255 96t-105 259q0 160 105.5 257.5t254.5 97.5q148 0 254 -98t106 -257zM709 345q0 137 -88 221.5t-216 84.5t-216 -83.5t-88 -222.5q0 -138 88 -222t216 -84t216 84.5t88 221.5zM539 176h-57l-100 149h-42
v-149h-46v353h103q60 0 92 -28t32 -71q0 -84 -88 -102zM475 430q0 27 -20.5 43t-54.5 16h-60v-123h54q81 0 81 64z" />
    <glyph glyph-name="macron" unicode="&#xaf;" horiz-adv-x="333" 
d="M303 667h-273v58h273v-58z" />
    <glyph glyph-name="degree" unicode="&#xb0;" horiz-adv-x="417" 
d="M355 562q0 -66 -37.5 -112t-108.5 -46q-73 0 -110 46t-37 112t38 112t109 46q72 0 109 -46t37 -112zM304 562q0 55 -26.5 85t-68.5 30q-43 0 -69.5 -29.5t-26.5 -85.5q0 -55 27 -85t69 -30t68.5 29.5t26.5 85.5z" />
    <glyph glyph-name="plusminus" unicode="&#xb1;" 
d="M515 306h-186v-152h-58v152h-186v54h186v187h58v-187h186v-54zM510 0h-420v56h420v-56z" />
    <glyph glyph-name="twosuperior" unicode="&#xb2;" horiz-adv-x="360" 
d="M312 320h-263v44l131 124q73 68 73 120q0 33 -21.5 54.5t-60.5 21.5q-46 0 -96 -41l-26 38q63 49 127 49q61 0 96 -33t35 -87q0 -68 -70 -135l-114 -107h189v-48z" />
    <glyph glyph-name="threesuperior" unicode="&#xb3;" horiz-adv-x="360" 
d="M301 426q0 -56 -43 -86t-98 -30q-76 0 -123 37l26 39q40 -30 92 -30q35 0 64 17t29 52q0 39 -27 58.5t-62 19.5h-45v43h45q32 0 56.5 20t24.5 52q0 66 -81 66q-46 0 -91 -33l-26 39q56 40 123 40q60 0 94 -30t34 -80q0 -37 -25 -61t-52 -31q30 -5 57.5 -29.5t27.5 -72.5z
" />
    <glyph glyph-name="acute" unicode="&#xb4;" horiz-adv-x="259" 
d="M229 745l-147 -147h-52l108 147h91z" />
    <glyph glyph-name="mu" unicode="&#xb5;" horiz-adv-x="523" 
d="M443 0h-52l-4 63q-54 -74 -144 -74q-65 0 -102 37v-226h-61v700h61v-328q0 -68 27.5 -100t86.5 -32q38 0 71.5 23.5t52.5 54.5v382h61v-410q0 -39 3 -90z" />
    <glyph glyph-name="paragraph" unicode="&#xb6;" horiz-adv-x="532" 
d="M457 0h-56v700h56v-700zM325 0h-55v339q-82 0 -138.5 48.5t-56.5 133.5q0 84 60 131.5t138 47.5h52v-700zM270 395v252q-56 0 -95.5 -33t-39.5 -91q0 -57 36 -92.5t99 -35.5z" />
    <glyph glyph-name="periodcentered" unicode="&#xb7;" horiz-adv-x="270" 
d="M176 287h-81v95h81v-95z" />
    <glyph glyph-name="cedilla" unicode="&#xb8;" horiz-adv-x="315" 
d="M236 -138q0 -44 -30 -66t-69 -22q-43 0 -79 19l16 45q35 -15 58 -15q20 0 34 10t14 30q0 37 -66 47l15 104h49l-8 -77q30 -8 48 -28.5t18 -46.5z" />
    <glyph glyph-name="onesuperior" unicode="&#xb9;" horiz-adv-x="360" 
d="M233 320h-52v344l-97 -58l-21 44l128 70h42v-400z" />
    <glyph glyph-name="ordmasculine" unicode="&#xba;" horiz-adv-x="520" 
d="M448 512q0 -92 -47 -151.5t-141 -59.5q-93 0 -140.5 59.5t-47.5 151.5q0 88 48 147.5t140 59.5q94 0 141 -58.5t47 -148.5zM415 0h-310v53h310v-53zM389 512q0 74 -33 118t-96 44q-61 0 -95 -44.5t-34 -117.5q0 -75 33 -120.5t96 -45.5q64 0 96.5 45t32.5 121z" />
    <glyph glyph-name="guillemotright" unicode="&#xbb;" horiz-adv-x="521" 
d="M421 339l-107 -227h-49l86 227l-86 227h49zM258 339l-107 -227h-49l85 227l-85 227h49z" />
    <glyph glyph-name="onequarter" unicode="&#xbc;" horiz-adv-x="836" 
d="M787 93h-58v-93h-52v93h-214v39l223 273h43v-267h58v-45zM624 810l-338 -910h-58l338 910h58zM243 320h-52v344l-97 -58l-21 44l128 70h42v-400zM678 138v194l-157 -194h157z" />
    <glyph glyph-name="onehalf" unicode="&#xbd;" horiz-adv-x="836" 
d="M796 0h-264v44l131 124q74 69 74 120q0 33 -21.5 54.5t-60.5 21.5q-47 0 -97 -41l-26 38q63 49 128 49q61 0 95.5 -33t34.5 -87q0 -68 -70 -135l-114 -107h190v-48zM624 810l-338 -910h-58l338 910h58zM243 320h-52v344l-97 -58l-21 44l128 70h42v-400z" />
    <glyph glyph-name="threequarters" unicode="&#xbe;" horiz-adv-x="836" 
d="M787 93h-58v-93h-52v93h-214v39l223 273h43v-267h58v-45zM624 810l-338 -910h-58l338 910h58zM313 426q0 -56 -43 -86t-98 -30q-76 0 -123 37l25 39q41 -30 92 -30q35 0 64 17t29 52q0 39 -27 58.5t-62 19.5h-44v43h45q32 0 56.5 20t24.5 52q0 66 -81 66q-47 0 -92 -33
l-25 39q56 40 122 40q60 0 94.5 -30t34.5 -80q0 -37 -25 -61t-52 -31q30 -5 57.5 -29.5t27.5 -72.5zM678 138v194l-157 -194h157z" />
    <glyph glyph-name="questiondown" unicode="&#xbf;" horiz-adv-x="443" 
d="M285 407h-76v93h76v-93zM394 -163q-77 -58 -168 -58q-77 0 -125.5 44t-48.5 124q0 39 17 72t41 57l48 47.5t41 54t17 66.5v47h62v-52q0 -42 -16.5 -76.5t-40.5 -59l-48 -47t-40.5 -50.5t-16.5 -59q0 -56 32 -85.5t86 -29.5q67 0 130 50z" />
    <glyph glyph-name="Agrave" unicode="&#xc0;" horiz-adv-x="639" 
d="M375 758h-59l-163 117h97zM614 0h-71l-67 191h-308l-73 -191h-70l277 705h56zM458 242l-84 239l-47 142q-28 -85 -50 -142l-90 -239h271z" />
    <glyph glyph-name="Aacute" unicode="&#xc1;" horiz-adv-x="639" 
d="M514 875l-162 -117h-60l126 117h96zM614 0h-71l-67 191h-308l-73 -191h-70l277 705h56zM458 242l-84 239l-47 142q-28 -85 -50 -142l-90 -239h271z" />
    <glyph glyph-name="Acircumflex" unicode="&#xc2;" horiz-adv-x="639" 
d="M494 758h-81l-85 77l-83 -77h-82l137 117h57zM614 0h-71l-67 191h-308l-73 -191h-70l277 705h56zM458 242l-84 239l-47 142q-28 -85 -50 -142l-90 -239h271z" />
    <glyph glyph-name="Atilde" unicode="&#xc3;" horiz-adv-x="639" 
d="M503 803q-47 -38 -93 -38q-26 0 -66 21t-64 21q-37 0 -72 -33l-20 48q48 41 97 41q30 0 67 -20.5t59 -20.5q31 0 64 28zM614 0h-71l-67 191h-308l-73 -191h-70l277 705h56zM458 242l-84 239l-47 142q-28 -85 -50 -142l-90 -239h271z" />
    <glyph glyph-name="Adieresis" unicode="&#xc4;" horiz-adv-x="639" 
d="M465 763h-71v77h71v-77zM266 763h-71v77h71v-77zM614 0h-71l-67 191h-308l-73 -191h-70l277 705h56zM458 242l-84 239l-47 142q-28 -85 -50 -142l-90 -239h271z" />
    <glyph glyph-name="Aring" unicode="&#xc5;" horiz-adv-x="639" 
d="M614 0h-71l-67 191h-308l-73 -191h-70l278 705q-33 9 -54.5 35.5t-21.5 60.5q0 43 30 72.5t73 29.5q44 0 74 -29t30 -73q0 -37 -23 -63t-54 -33zM389 802q0 25 -16 42.5t-43 17.5q-26 0 -42.5 -18.5t-16.5 -41.5q0 -22 17 -41t42 -19q28 0 43.5 17.5t15.5 42.5zM458 242
l-84 239l-47 142l-50 -142l-90 -239h271z" />
    <glyph glyph-name="AE" unicode="&#xc6;" horiz-adv-x="877" 
d="M818 0h-363v191h-253l-107 -191h-70l397 705h386v-53h-291v-263h268v-53h-268v-283h301v-53zM455 243v407q0 -1 -16 -31l-38 -70l-38 -68l-138 -238h230z" />
    <glyph glyph-name="Ccedilla" unicode="&#xc7;" horiz-adv-x="582" 
d="M542 48q-85 -60 -179 -64l-6 -47q30 -8 48.5 -29t18.5 -46q0 -43 -30.5 -65.5t-69.5 -22.5q-42 0 -78 19l16 45q34 -15 58 -15q20 0 34 10t14 30q0 37 -66 47l11 76q-120 13 -189 112.5t-69 255.5q0 161 79.5 264t221.5 103q98 0 184 -61l-32 -50q-73 55 -152 55
q-113 0 -174 -85t-61 -225q0 -139 62 -227t164 -88q86 0 163 57z" />
    <glyph glyph-name="Egrave" unicode="&#xc8;" horiz-adv-x="528" 
d="M331 758h-59l-163 117h97zM468 0h-383v705h373v-53h-311v-263h288v-53h-288v-283h321v-53z" />
    <glyph glyph-name="Eacute" unicode="&#xc9;" horiz-adv-x="528" 
d="M441 875l-162 -117h-60l126 117h96zM468 0h-383v705h373v-53h-311v-263h288v-53h-288v-283h321v-53z" />
    <glyph glyph-name="Ecircumflex" unicode="&#xca;" horiz-adv-x="528" 
d="M437 758h-82l-84 77l-83 -77h-82l137 117h56zM468 0h-383v705h373v-53h-311v-263h288v-53h-288v-283h321v-53z" />
    <glyph glyph-name="Edieresis" unicode="&#xcb;" horiz-adv-x="528" 
d="M410 763h-71v77h71v-77zM211 763h-71v77h71v-77zM468 0h-383v705h373v-53h-311v-263h288v-53h-288v-283h321v-53z" />
    <glyph glyph-name="Igrave" unicode="&#xcc;" horiz-adv-x="232" 
d="M175 758h-60l-162 117h96zM147 0h-62v705h62v-705z" />
    <glyph glyph-name="Iacute" unicode="&#xcd;" horiz-adv-x="232" 
d="M279 875l-163 -117h-59l125 117h97zM147 0h-62v705h62v-705z" />
    <glyph glyph-name="Icircumflex" unicode="&#xce;" horiz-adv-x="232" 
d="M282 758h-82l-84 77l-83 -77h-82l136 117h57zM147 0h-62v705h62v-705z" />
    <glyph glyph-name="Idieresis" unicode="&#xcf;" horiz-adv-x="232" 
d="M251 763h-70v77h70v-77zM52 763h-71v77h71v-77zM147 0h-62v705h62v-705z" />
    <glyph glyph-name="Eth" unicode="&#xd0;" horiz-adv-x="654" 
d="M600 352q0 -352 -354 -352h-161v348h-68v52h68v305h161q179 0 266.5 -83.5t87.5 -269.5zM535 351q0 156 -68.5 228.5t-219.5 72.5h-100v-252h195v-52h-195v-295h103q141 0 213 75.5t72 222.5z" />
    <glyph glyph-name="Ntilde" unicode="&#xd1;" horiz-adv-x="652" 
d="M489 803q-47 -38 -93 -38q-26 0 -66 21t-64 21q-37 0 -72 -33l-20 48q48 41 97 41q30 0 67 -20.5t59 -20.5q31 0 64 28zM567 0h-85l-260 473q-15 27 -34 65.5t-30 63.5l-12 25v-627h-61v705h84l260 -472q16 -29 34.5 -67.5t29.5 -63.5l11 -24v627h63v-705z" />
    <glyph glyph-name="Ograve" unicode="&#xd2;" horiz-adv-x="712" 
d="M396 758h-60l-162 117h96zM657 352q0 -161 -81 -264.5t-221 -103.5q-139 0 -219.5 102.5t-80.5 265.5q0 162 81.5 265.5t220.5 103.5t219.5 -102.5t80.5 -266.5zM592 352q0 144 -64 229t-172 85q-107 0 -171.5 -85t-64.5 -229q0 -141 64.5 -227t171.5 -86q108 0 172 86
t64 227z" />
    <glyph glyph-name="Oacute" unicode="&#xd3;" horiz-adv-x="712" 
d="M541 875l-163 -117h-59l125 117h97zM657 352q0 -161 -81 -264.5t-221 -103.5q-139 0 -219.5 102.5t-80.5 265.5q0 162 81.5 265.5t220.5 103.5t219.5 -102.5t80.5 -266.5zM592 352q0 144 -64 229t-172 85q-107 0 -171.5 -85t-64.5 -229q0 -141 64.5 -227t171.5 -86
q108 0 172 86t64 227z" />
    <glyph glyph-name="Ocircumflex" unicode="&#xd4;" horiz-adv-x="712" 
d="M523 758h-82l-84 77l-83 -77h-82l136 117h57zM657 352q0 -161 -81 -264.5t-221 -103.5q-139 0 -219.5 102.5t-80.5 265.5q0 162 81.5 265.5t220.5 103.5t219.5 -102.5t80.5 -266.5zM592 352q0 144 -64 229t-172 85q-107 0 -171.5 -85t-64.5 -229q0 -141 64.5 -227
t171.5 -86q108 0 172 86t64 227z" />
    <glyph glyph-name="Otilde" unicode="&#xd5;" horiz-adv-x="712" 
d="M517 803q-47 -38 -93 -38q-26 0 -66.5 21t-64.5 21q-36 0 -71 -33l-21 48q48 41 98 41q30 0 67 -20.5t59 -20.5q31 0 64 28zM657 352q0 -161 -81 -264.5t-221 -103.5q-139 0 -219.5 102.5t-80.5 265.5q0 162 81.5 265.5t220.5 103.5t219.5 -102.5t80.5 -266.5zM592 352
q0 144 -64 229t-172 85q-107 0 -171.5 -85t-64.5 -229q0 -141 64.5 -227t171.5 -86q108 0 172 86t64 227z" />
    <glyph glyph-name="Odieresis" unicode="&#xd6;" horiz-adv-x="712" 
d="M493 763h-71v77h71v-77zM294 763h-71v77h71v-77zM657 352q0 -161 -81 -264.5t-221 -103.5q-139 0 -219.5 102.5t-80.5 265.5q0 162 81.5 265.5t220.5 103.5t219.5 -102.5t80.5 -266.5zM592 352q0 144 -64 229t-172 85q-107 0 -171.5 -85t-64.5 -229q0 -141 64.5 -227
t171.5 -86q108 0 172 86t64 227z" />
    <glyph glyph-name="multiply" unicode="&#xd7;" horiz-adv-x="550" 
d="M459 189l-41 -40l-142 142l-140 -140l-40 39l140 140l-143 143l40 40l144 -142l141 142l40 -39l-142 -143z" />
    <glyph glyph-name="Oslash" unicode="&#xd8;" horiz-adv-x="712" 
d="M657 352q0 -161 -81 -264.5t-221 -103.5q-57 0 -103 18l-40 -107h-58l49 131q-71 45 -109.5 130.5t-38.5 195.5q0 162 81.5 265.5t220.5 103.5q53 0 99 -17l38 101h59l-47 -124q72 -45 111.5 -131t39.5 -198zM592 352q0 93 -28 163.5t-79 108.5l-213 -568q39 -17 84 -17
q108 0 172 86t64 227zM437 651q-38 15 -81 15q-107 0 -171.5 -85t-64.5 -229q0 -91 27.5 -160.5t77.5 -108.5z" />
    <glyph glyph-name="Ugrave" unicode="&#xd9;" horiz-adv-x="632" 
d="M377 758h-59l-163 117h97zM548 253q0 -133 -61.5 -201t-170.5 -68q-111 0 -171 67.5t-60 201.5v452h63v-463q0 -97 41.5 -149.5t126.5 -52.5q84 0 126.5 53.5t42.5 148.5v463h63v-452z" />
    <glyph glyph-name="Uacute" unicode="&#xda;" horiz-adv-x="632" 
d="M477 875l-162 -117h-60l126 117h96zM548 253q0 -133 -61.5 -201t-170.5 -68q-111 0 -171 67.5t-60 201.5v452h63v-463q0 -97 41.5 -149.5t126.5 -52.5q84 0 126.5 53.5t42.5 148.5v463h63v-452z" />
    <glyph glyph-name="Ucircumflex" unicode="&#xdb;" horiz-adv-x="632" 
d="M482 758h-82l-84 77l-83 -77h-82l137 117h57zM548 253q0 -133 -61.5 -201t-170.5 -68q-111 0 -171 67.5t-60 201.5v452h63v-463q0 -97 41.5 -149.5t126.5 -52.5q84 0 126.5 53.5t42.5 148.5v463h63v-452z" />
    <glyph glyph-name="Udieresis" unicode="&#xdc;" horiz-adv-x="632" 
d="M451 763h-71v77h71v-77zM252 763h-71v77h71v-77zM548 253q0 -133 -61.5 -201t-170.5 -68q-111 0 -171 67.5t-60 201.5v452h63v-463q0 -97 41.5 -149.5t126.5 -52.5q84 0 126.5 53.5t42.5 148.5v463h63v-452z" />
    <glyph glyph-name="Yacute" unicode="&#xdd;" horiz-adv-x="621" 
d="M484 875l-162 -117h-60l126 117h96zM586 705l-236 -406v-299h-64v299l-251 406h74l210 -345l196 345h71z" />
    <glyph glyph-name="Thorn" unicode="&#xde;" horiz-adv-x="557" 
d="M502 364q0 -106 -65.5 -162.5t-171.5 -56.5h-118v-145h-62v705h62v-130h106q115 0 182 -52.5t67 -158.5zM437 364q0 83 -51 120.5t-136 37.5h-103v-323h108q83 0 132.5 40t49.5 125z" />
    <glyph glyph-name="germandbls" unicode="&#xdf;" horiz-adv-x="528" 
d="M476 152q0 -74 -47 -118.5t-127 -44.5q-51 0 -97 25l22 47q35 -20 75 -20q50 0 80 30t30 81q0 30 -16 55t-38.5 42.5l-45 36t-38.5 46t-16 61.5q0 28 13.5 52t29.5 38.5t29.5 37.5t13.5 48q0 46 -28.5 71t-72.5 25q-54 0 -79.5 -37t-25.5 -94v-534h-61v523
q0 88 43.5 140.5t134.5 52.5q59 0 104.5 -37.5t45.5 -107.5q0 -33 -22.5 -64.5t-44.5 -58.5t-22 -51q0 -22 16.5 -41.5t40 -37t47 -38t40 -53.5t16.5 -75z" />
    <glyph glyph-name="agrave" unicode="&#xe0;" horiz-adv-x="498" 
d="M284 598h-52l-147 147h91zM421 0h-51q0 2 -3.5 31.5t-3.5 32.5q-52 -75 -152 -75q-71 0 -116 39.5t-45 106.5q0 80 62 123t186 43h59v46q0 57 -28.5 84.5t-76.5 27.5q-72 0 -158 -41l-21 50q84 43 169 43q176 0 176 -167v-240q0 -10 1.5 -53t1.5 -51zM357 113v142h-48
q-102 0 -148.5 -28.5t-46.5 -89.5q0 -42 32 -69t82 -27q40 0 74 21t55 51z" />
    <glyph glyph-name="aacute" unicode="&#xe1;" horiz-adv-x="498" 
d="M405 745l-147 -147h-52l108 147h91zM421 0h-51q0 2 -3.5 31.5t-3.5 32.5q-52 -75 -152 -75q-71 0 -116 39.5t-45 106.5q0 80 62 123t186 43h59v46q0 57 -28.5 84.5t-76.5 27.5q-72 0 -158 -41l-21 50q84 43 169 43q176 0 176 -167v-240q0 -10 1.5 -53t1.5 -51zM357 113
v142h-48q-102 0 -148.5 -28.5t-46.5 -89.5q0 -42 32 -69t82 -27q40 0 74 21t55 51z" />
    <glyph glyph-name="acircumflex" unicode="&#xe2;" horiz-adv-x="498" 
d="M417 598h-71l-95 106l-93 -106h-72l137 147h57zM421 0h-51q0 2 -3.5 31.5t-3.5 32.5q-52 -75 -152 -75q-71 0 -116 39.5t-45 106.5q0 80 62 123t186 43h59v46q0 57 -28.5 84.5t-76.5 27.5q-72 0 -158 -41l-21 50q84 43 169 43q176 0 176 -167v-240q0 -10 1.5 -53t1.5 -51
zM357 113v142h-48q-102 0 -148.5 -28.5t-46.5 -89.5q0 -42 32 -69t82 -27q40 0 74 21t55 51z" />
    <glyph glyph-name="atilde" unicode="&#xe3;" horiz-adv-x="498" 
d="M396 678q-47 -38 -93 -38q-26 0 -66 21t-64 21q-36 0 -71 -33l-21 48q48 41 98 41q30 0 67 -20.5t59 -20.5q31 0 64 28zM421 0h-51q0 2 -3.5 31.5t-3.5 32.5q-52 -75 -152 -75q-71 0 -116 39.5t-45 106.5q0 80 62 123t186 43h59v46q0 57 -28.5 84.5t-76.5 27.5
q-72 0 -158 -41l-21 50q84 43 169 43q176 0 176 -167v-240q0 -10 1.5 -53t1.5 -51zM357 113v142h-48q-102 0 -148.5 -28.5t-46.5 -89.5q0 -42 32 -69t82 -27q40 0 74 21t55 51z" />
    <glyph glyph-name="adieresis" unicode="&#xe4;" horiz-adv-x="498" 
d="M386 628h-71v77h71v-77zM187 628h-71v77h71v-77zM421 0h-51q0 2 -3.5 31.5t-3.5 32.5q-52 -75 -152 -75q-71 0 -116 39.5t-45 106.5q0 80 62 123t186 43h59v46q0 57 -28.5 84.5t-76.5 27.5q-72 0 -158 -41l-21 50q84 43 169 43q176 0 176 -167v-240q0 -10 1.5 -53
t1.5 -51zM357 113v142h-48q-102 0 -148.5 -28.5t-46.5 -89.5q0 -42 32 -69t82 -27q40 0 74 21t55 51z" />
    <glyph glyph-name="aring" unicode="&#xe5;" horiz-adv-x="498" 
d="M354 667q0 -42 -30.5 -71.5t-73.5 -29.5t-72.5 29.5t-29.5 71.5q0 43 29.5 72.5t72.5 29.5q44 0 74 -29t30 -73zM421 0h-51q0 2 -3.5 31.5t-3.5 32.5q-52 -75 -152 -75q-71 0 -116 39.5t-45 106.5q0 80 62 123t186 43h59v46q0 57 -28.5 84.5t-76.5 27.5q-72 0 -158 -41
l-21 50q84 43 169 43q176 0 176 -167v-240q0 -10 1.5 -53t1.5 -51zM309 668q0 25 -16 42.5t-43 17.5q-26 0 -42 -18.5t-16 -41.5q0 -22 16.5 -41t41.5 -19q28 0 43.5 17.5t15.5 42.5zM357 113v142h-48q-102 0 -148.5 -28.5t-46.5 -89.5q0 -42 32 -69t82 -27q40 0 74 21
t55 51z" />
    <glyph glyph-name="ae" unicode="&#xe6;" horiz-adv-x="822" 
d="M770 231h-352q0 -86 43 -138t122 -52q75 0 141 51l30 -42q-78 -61 -171 -61q-124 0 -185 97q-22 -27 -41.5 -45.5t-58.5 -35t-86 -16.5q-71 0 -116 39.5t-45 106.5q0 80 62 123t186 43h59v46q0 57 -28.5 84.5t-76.5 27.5q-72 0 -158 -41l-21 50q84 43 169 43
q129 0 161 -92q56 92 162 92q204 0 204 -280zM707 281q-3 180 -141 180q-71 0 -109.5 -53.5t-38.5 -126.5h289zM358 117v138h-48q-102 0 -148.5 -28.5t-46.5 -89.5q0 -42 32 -69t82 -27q41 0 76 22.5t53 53.5z" />
    <glyph glyph-name="ccedilla" unicode="&#xe7;" horiz-adv-x="476" 
d="M436 462l-28 -48q-56 43 -126 43q-69 0 -116 -52.5t-47 -157.5q0 -95 45.5 -149.5t116.5 -54.5q62 0 121 41l28 -48q-63 -44 -135 -47l-6 -52q30 -8 48.5 -29t18.5 -46q0 -43 -30.5 -65.5t-69.5 -22.5q-42 0 -78 19l15 45q35 -15 58 -15q20 0 34 10t14 30q0 37 -66 47
l13 82q-93 13 -142 81.5t-49 173.5q0 122 63.5 193t173.5 71q78 0 144 -49z" />
    <glyph glyph-name="egrave" unicode="&#xe8;" horiz-adv-x="528" 
d="M312 598h-52l-147 147h91zM475 231h-353q4 -91 51.5 -140.5t115.5 -49.5q75 0 141 51l30 -42q-78 -61 -171 -61q-101 0 -166.5 67.5t-65.5 188.5q0 127 62.5 196.5t151.5 69.5q204 0 204 -280zM412 281q-3 180 -140 180q-62 0 -102.5 -46.5t-46.5 -133.5h289z" />
    <glyph glyph-name="eacute" unicode="&#xe9;" horiz-adv-x="528" 
d="M424 745l-147 -147h-52l107 147h92zM475 231h-353q4 -91 51.5 -140.5t115.5 -49.5q75 0 141 51l30 -42q-78 -61 -171 -61q-101 0 -166.5 67.5t-65.5 188.5q0 127 62.5 196.5t151.5 69.5q204 0 204 -280zM412 281q-3 180 -140 180q-62 0 -102.5 -46.5t-46.5 -133.5h289z
" />
    <glyph glyph-name="ecircumflex" unicode="&#xea;" horiz-adv-x="528" 
d="M439 598h-72l-94 106l-93 -106h-72l137 147h56zM475 231h-353q4 -91 51.5 -140.5t115.5 -49.5q75 0 141 51l30 -42q-78 -61 -171 -61q-101 0 -166.5 67.5t-65.5 188.5q0 127 62.5 196.5t151.5 69.5q204 0 204 -280zM412 281q-3 180 -140 180q-62 0 -102.5 -46.5
t-46.5 -133.5h289z" />
    <glyph glyph-name="edieresis" unicode="&#xeb;" horiz-adv-x="528" 
d="M406 628h-71v77h71v-77zM206 628h-71v77h71v-77zM475 231h-353q4 -91 51.5 -140.5t115.5 -49.5q75 0 141 51l30 -42q-78 -61 -171 -61q-101 0 -166.5 67.5t-65.5 188.5q0 127 62.5 196.5t151.5 69.5q204 0 204 -280zM412 281q-3 180 -140 180q-62 0 -102.5 -46.5
t-46.5 -133.5h289z" />
    <glyph glyph-name="igrave" unicode="&#xec;" horiz-adv-x="231" 
d="M172 598h-52l-147 147h91zM146 0h-61v500h61v-500z" />
    <glyph glyph-name="iacute" unicode="&#xed;" horiz-adv-x="231" 
d="M258 745l-147 -147h-52l107 147h92zM146 0h-61v500h61v-500z" />
    <glyph glyph-name="icircumflex" unicode="&#xee;" horiz-adv-x="231" 
d="M281 598h-72l-94 106l-94 -106h-71l136 147h57zM146 0h-61v500h61v-500z" />
    <glyph glyph-name="idieresis" unicode="&#xef;" horiz-adv-x="231" 
d="M250 628h-70v77h70v-77zM51 628h-71v77h71v-77zM146 0h-61v500h61v-500z" />
    <glyph glyph-name="eth" unicode="&#xf0;" horiz-adv-x="509" 
d="M469 288q0 -154 -58.5 -229t-158.5 -75q-87 0 -142 63t-55 156q0 95 54 154.5t131 59.5q99 0 166 -84q0 180 -103 253l-47 -74h-61l64 99q-68 30 -172 30l15 50q111 0 187 -35l44 69h61l-61 -94q136 -93 136 -343zM407 276q-66 89 -154 89q-59 0 -96.5 -42t-37.5 -120
q0 -82 41 -125t96 -43q68 0 109 60.5t42 180.5z" />
    <glyph glyph-name="ntilde" unicode="&#xf1;" horiz-adv-x="530" 
d="M440 678q-47 -38 -93 -38q-26 0 -66 21t-64 21q-36 0 -71 -33l-21 48q48 41 97 41q30 0 67.5 -20.5t59.5 -20.5q31 0 64 28zM450 0h-61v317q0 142 -118 142q-76 0 -130 -81v-378h-61v408q0 41 -3 92h51l5 -69q55 80 150 80q167 0 167 -198v-313z" />
    <glyph glyph-name="ograve" unicode="&#xf2;" horiz-adv-x="555" 
d="M324 598h-51l-148 147h91zM501 252q0 -114 -56 -188.5t-167 -74.5q-109 0 -166 74.5t-57 188.5q0 109 58.5 184t164.5 75q110 0 166.5 -73.5t56.5 -185.5zM437 252q0 94 -41 151t-118 57q-75 0 -117 -57.5t-42 -150.5q0 -95 41 -153.5t118 -58.5q78 0 118.5 58.5
t40.5 153.5z" />
    <glyph glyph-name="oacute" unicode="&#xf3;" horiz-adv-x="555" 
d="M430 745l-147 -147h-52l108 147h91zM501 252q0 -114 -56 -188.5t-167 -74.5q-109 0 -166 74.5t-57 188.5q0 109 58.5 184t164.5 75q110 0 166.5 -73.5t56.5 -185.5zM437 252q0 94 -41 151t-118 57q-75 0 -117 -57.5t-42 -150.5q0 -95 41 -153.5t118 -58.5
q78 0 118.5 58.5t40.5 153.5z" />
    <glyph glyph-name="ocircumflex" unicode="&#xf4;" horiz-adv-x="555" 
d="M444 598h-72l-94 106l-94 -106h-71l136 147h57zM501 252q0 -114 -56 -188.5t-167 -74.5q-109 0 -166 74.5t-57 188.5q0 109 58.5 184t164.5 75q110 0 166.5 -73.5t56.5 -185.5zM437 252q0 94 -41 151t-118 57q-75 0 -117 -57.5t-42 -150.5q0 -95 41 -153.5t118 -58.5
q78 0 118.5 58.5t40.5 153.5z" />
    <glyph glyph-name="otilde" unicode="&#xf5;" horiz-adv-x="555" 
d="M441 678q-47 -38 -92 -38q-26 0 -66.5 21t-64.5 21q-36 0 -71 -33l-21 48q48 41 98 41q30 0 67 -20.5t59 -20.5q31 0 64 28zM501 252q0 -114 -56 -188.5t-167 -74.5q-109 0 -166 74.5t-57 188.5q0 109 58.5 184t164.5 75q110 0 166.5 -73.5t56.5 -185.5zM437 252
q0 94 -41 151t-118 57q-75 0 -117 -57.5t-42 -150.5q0 -95 41 -153.5t118 -58.5q78 0 118.5 58.5t40.5 153.5z" />
    <glyph glyph-name="odieresis" unicode="&#xf6;" horiz-adv-x="555" 
d="M412 628h-71v77h71v-77zM213 628h-71v77h71v-77zM501 252q0 -114 -56 -188.5t-167 -74.5q-109 0 -166 74.5t-57 188.5q0 109 58.5 184t164.5 75q110 0 166.5 -73.5t56.5 -185.5zM437 252q0 94 -41 151t-118 57q-75 0 -117 -57.5t-42 -150.5q0 -95 41 -153.5t118 -58.5
q78 0 118.5 58.5t40.5 153.5z" />
    <glyph glyph-name="divide" unicode="&#xf7;" 
d="M338 477h-76v93h76v-93zM510 297h-420v56h420v-56zM338 80h-76v93h76v-93z" />
    <glyph glyph-name="oslash" unicode="&#xf8;" horiz-adv-x="555" 
d="M501 252q0 -114 -56 -188.5t-167 -74.5q-48 0 -82 14l-47 -108h-57l57 133q-94 69 -94 224q0 109 58.5 184t164.5 75q42 0 76 -12l46 106h57l-55 -128q99 -66 99 -225zM437 252q0 118 -59 171l-161 -370q29 -13 61 -13q78 0 118.5 58.5t40.5 153.5zM333 450
q-27 10 -55 10q-75 0 -117 -57.5t-42 -150.5q0 -114 54 -169z" />
    <glyph glyph-name="ugrave" unicode="&#xf9;" horiz-adv-x="520" 
d="M300 598h-52l-147 147h91zM443 0h-53l-4 63q-54 -74 -143 -74q-81 0 -122 47t-41 127v337h61v-327q0 -68 27.5 -100.5t85.5 -32.5q38 0 72 23.5t53 54.5v382h61v-410q0 -39 3 -90z" />
    <glyph glyph-name="uacute" unicode="&#xfa;" horiz-adv-x="520" 
d="M419 745l-147 -147h-52l108 147h91zM443 0h-53l-4 63q-54 -74 -143 -74q-81 0 -122 47t-41 127v337h61v-327q0 -68 27.5 -100.5t85.5 -32.5q38 0 72 23.5t53 54.5v382h61v-410q0 -39 3 -90z" />
    <glyph glyph-name="ucircumflex" unicode="&#xfb;" horiz-adv-x="520" 
d="M427 598h-71l-95 106l-93 -106h-72l137 147h57zM443 0h-53l-4 63q-54 -74 -143 -74q-81 0 -122 47t-41 127v337h61v-327q0 -68 27.5 -100.5t85.5 -32.5q38 0 72 23.5t53 54.5v382h61v-410q0 -39 3 -90z" />
    <glyph glyph-name="udieresis" unicode="&#xfc;" horiz-adv-x="520" 
d="M395 628h-71v77h71v-77zM196 628h-71v77h71v-77zM443 0h-53l-4 63q-54 -74 -143 -74q-81 0 -122 47t-41 127v337h61v-327q0 -68 27.5 -100.5t85.5 -32.5q38 0 72 23.5t53 54.5v382h61v-410q0 -39 3 -90z" />
    <glyph glyph-name="yacute" unicode="&#xfd;" horiz-adv-x="473" 
d="M422 745l-147 -147h-52l108 147h91zM448 500l-174 -537q-24 -75 -71.5 -112.5t-132.5 -52.5l-10 53q118 22 149 110l14 40l-198 499h68l114 -301l45 -128l133 429h63z" />
    <glyph glyph-name="thorn" unicode="&#xfe;" horiz-adv-x="533" 
d="M481 255q0 -120 -52 -193t-146 -73q-93 0 -142 63v-252h-61v920h61v-288q61 79 147 79q90 0 141.5 -70.5t51.5 -185.5zM417 250q0 104 -39 157t-103 53q-70 0 -134 -91v-269q31 -31 58.5 -45.5t70.5 -14.5q62 0 104.5 53.5t42.5 156.5z" />
    <glyph glyph-name="ydieresis" unicode="&#xff;" horiz-adv-x="473" 
d="M371 628h-71v77h71v-77zM171 628h-70v77h70v-77zM448 500l-174 -537q-24 -75 -71.5 -112.5t-132.5 -52.5l-10 53q118 22 149 110l14 40l-198 499h68l114 -301l45 -128l133 429h63z" />
    <glyph glyph-name="dotlessi" unicode="&#x131;" horiz-adv-x="231" 
d="M146 0h-61v500h61v-500z" />
    <glyph glyph-name="Lslash" unicode="&#x141;" horiz-adv-x="488" 
d="M471 0h-381v326l-70 -45v71l70 44v309h62v-270l164 102v-69l-164 -103v-309h319v-56z" />
    <glyph glyph-name="lslash" unicode="&#x142;" horiz-adv-x="221" 
d="M207 427l-66 -50v-377h-61v327l-65 -50v72l65 49v322h61v-272l66 51v-72z" />
    <glyph glyph-name="Ohungarumlaut" unicode="&#x150;" horiz-adv-x="712" 
d="M657 352q0 -161 -81 -264.5t-221 -103.5q-139 0 -219.5 102.5t-80.5 265.5q0 162 81.5 265.5t220.5 103.5t219.5 -102.5t80.5 -266.5zM592 352q0 144 -64 229t-172 85q-107 0 -171.5 -85t-64.5 -229q0 -141 64.5 -227t171.5 -86q108 0 172 86t64 227zM451 875l-163 -117
h-59l125 117h97zM612 875l-163 -117h-59l125 117h97z" />
    <glyph glyph-name="ohungarumlaut" unicode="&#x151;" horiz-adv-x="555" 
d="M501 252q0 -114 -56 -188.5t-167 -74.5q-109 0 -166 74.5t-57 188.5q0 109 58.5 184t164.5 75q110 0 166.5 -73.5t56.5 -185.5zM437 252q0 94 -41 151t-118 57q-75 0 -117 -57.5t-42 -150.5q0 -95 41 -153.5t118 -58.5q78 0 118.5 58.5t40.5 153.5zM520 745l-147 -147
h-52l108 147h91zM369 745l-147 -147h-52l108 147h91z" />
    <glyph glyph-name="OE" unicode="&#x152;" horiz-adv-x="893" 
d="M833 0h-372q-48 -16 -109 -16q-139 0 -218 102.5t-79 265.5q0 162 80.5 265.5t219.5 103.5q59 0 108 -16h360v-53h-300v-263h277v-53h-277v-283h310v-53zM461 65v575q-38 26 -108 26q-107 0 -170 -85t-63 -229q0 -142 63 -227.5t170 -85.5q63 0 108 26z" />
    <glyph glyph-name="oe" unicode="&#x153;" horiz-adv-x="900" 
d="M848 231h-354q4 -91 51.5 -140.5t115.5 -49.5q75 0 141 51l30 -42q-78 -61 -171 -61q-67 0 -118 31.5t-78 90.5q-50 -122 -188 -122q-110 0 -166 74t-56 189q0 110 57.5 184.5t164.5 74.5q139 0 189 -121q26 59 72.5 90t104.5 31q205 0 205 -280zM784 281
q-3 180 -140 180q-62 0 -103 -46.5t-47 -133.5h290zM435 252q0 94 -40.5 151t-117.5 57q-75 0 -116.5 -57.5t-41.5 -150.5q0 -95 40.5 -153.5t117.5 -58.5q78 0 118 58.5t40 153.5z" />
    <glyph glyph-name="Scaron" unicode="&#x160;" horiz-adv-x="569" 
d="M464 875l-136 -117h-57l-138 117h82l84 -77l84 77h81zM509 180q0 -97 -67 -147t-171 -49q-123 0 -224 75l32 51q89 -71 190 -71q73 0 124 34.5t51 103.5q0 17 -3 32t-10.5 27.5l-13.5 22t-21 19.5t-22 15.5t-27.5 14.5l-27.5 12t-31 12.5t-30 11.5l-43.5 17t-38 17
t-36.5 21l-28 24t-24 30.5t-13 37t-6 47.5q0 89 66 136t167 47q104 0 194 -62l-31 -50q-78 57 -164 57q-70 0 -118 -32t-48 -97q0 -27 11 -47t31 -34t44.5 -25t54.5 -23l9 -3q99 -39 128 -56q96 -58 96 -169z" />
    <glyph glyph-name="scaron" unicode="&#x161;" horiz-adv-x="437" 
d="M389 745l-136 -147h-57l-138 147h72l94 -106l94 106h71zM388 128q0 -67 -52 -103t-118 -36q-43 0 -79 9t-56.5 19t-47.5 27l31 47q73 -51 149 -51q48 0 78.5 25t30.5 60q0 45 -27 65.5t-90 39.5q-74 22 -114.5 54t-40.5 94q0 64 49.5 98.5t121.5 34.5q87 0 158 -48
l-29 -47q-63 44 -131 44q-50 0 -77.5 -20.5t-27.5 -57.5q0 -36 23.5 -54.5t84.5 -37.5q30 -9 48.5 -16t43 -20.5t38.5 -29t24 -40.5t10 -56z" />
    <glyph glyph-name="Uhungarumlaut" unicode="&#x170;" horiz-adv-x="632" 
d="M548 253q0 -133 -61.5 -201t-170.5 -68q-111 0 -171 67.5t-60 201.5v452h63v-463q0 -97 41.5 -149.5t126.5 -52.5q84 0 126.5 53.5t42.5 148.5v463h63v-452zM408 875l-163 -117h-59l125 117h97zM569 875l-163 -117h-59l125 117h97z" />
    <glyph glyph-name="uhungarumlaut" unicode="&#x171;" horiz-adv-x="520" 
d="M443 0h-53l-4 63q-54 -74 -143 -74q-81 0 -122 47t-41 127v337h61v-327q0 -68 27.5 -100.5t85.5 -32.5q38 0 72 23.5t53 54.5v382h61v-410q0 -39 3 -90zM503 745l-147 -147h-52l108 147h91zM352 745l-147 -147h-52l108 147h91z" />
    <glyph glyph-name="Ydieresis" unicode="&#x178;" horiz-adv-x="621" 
d="M447 763h-70v77h70v-77zM248 763h-71v77h71v-77zM586 705l-236 -406v-299h-64v299l-251 406h74l210 -345l196 345h71z" />
    <glyph glyph-name="Zcaron" unicode="&#x17d;" horiz-adv-x="565" 
d="M467 875l-137 -117h-56l-138 117h82l84 -77l83 77h82zM515 656l-391 -600h387v-56h-466v49l391 600h-351v56h430v-49z" />
    <glyph glyph-name="zcaron" unicode="&#x17e;" horiz-adv-x="432" 
d="M399 745l-137 -147h-56l-138 147h72l94 -106l93 106h72zM388 455l-270 -402h261v-53h-339v45l269 402h-246v53h325v-45z" />
    <glyph glyph-name="florin" unicode="&#x192;" horiz-adv-x="297" 
d="M322 707l-19 -51q-23 10 -44 10q-52 0 -74.5 -26.5t-22.5 -81.5v-58h122v-51h-122v-416q0 -108 -54.5 -163t-150.5 -74l-11 55q155 30 155 173v425h-86v51h86v53q0 167 161 167q28 0 60 -13z" />
    <glyph glyph-name="circumflex" unicode="&#x2c6;" horiz-adv-x="391" 
d="M361 598h-72l-94 106l-93 -106h-72l137 147h56z" />
    <glyph glyph-name="caron" unicode="&#x2c7;" horiz-adv-x="391" 
d="M361 745l-137 -147h-56l-138 147h72l94 -106l93 106h72z" />
    <glyph glyph-name="uni02C9" unicode="&#x2c9;" horiz-adv-x="333" 
d="M303 667h-273v58h273v-58z" />
    <glyph glyph-name="breve" unicode="&#x2d8;" horiz-adv-x="375" 
d="M345 745q-9 -54 -46 -95.5t-111 -41.5q-73 0 -111 42t-47 95h68q6 -34 28 -59t62 -25q72 0 89 84h68z" />
    <glyph glyph-name="dotaccent" unicode="&#x2d9;" horiz-adv-x="231" 
d="M151 643h-71v77h71v-77z" />
    <glyph glyph-name="ring" unicode="&#x2da;" horiz-adv-x="266" 
d="M236 667q0 -43 -30 -72t-73 -29t-73 29.5t-30 71.5q0 43 30 72.5t73 29.5q44 0 73.5 -29t29.5 -73zM192 668q0 25 -16 42.5t-43 17.5q-26 0 -42.5 -18.5t-16.5 -41.5q0 -22 17 -41t42 -19q28 0 43.5 17.5t15.5 42.5z" />
    <glyph glyph-name="ogonek" unicode="&#x2db;" horiz-adv-x="315" 
d="M262 -164q-43 -23 -85 -23q-49 0 -79 29t-30 82q0 32 18.5 70.5t40.5 65.5h48q-20 -27 -35.5 -68t-15.5 -67q0 -28 16 -44.5t45 -16.5q25 0 62 17z" />
    <glyph glyph-name="tilde" unicode="&#x2dc;" horiz-adv-x="377" 
d="M352 678q-47 -38 -92 -38q-26 0 -66.5 21t-64.5 21q-36 0 -71 -33l-21 48q48 41 98 41q30 0 67 -20.5t59 -20.5q31 0 64 28z" />
    <glyph glyph-name="hungarumlaut" unicode="&#x2dd;" horiz-adv-x="410" 
d="M380 745l-147 -147h-52l108 147h91zM229 745l-147 -147h-52l108 147h91z" />
    <glyph glyph-name="uni03BC" unicode="&#x3bc;" horiz-adv-x="523" 
d="M443 0h-52l-4 63q-54 -74 -144 -74q-65 0 -102 37v-226h-61v700h61v-328q0 -68 27.5 -100t86.5 -32q38 0 71.5 23.5t52.5 54.5v382h61v-410q0 -39 3 -90z" />
    <glyph glyph-name="pi" unicode="&#x3c0;" horiz-adv-x="567" 
d="M490 0l-13 -52q-73 17 -104 57t-31 106v336h-177v-447h-58v447h-82v53h449v-53h-74v-340q0 -93 90 -107z" />
    <glyph glyph-name="endash" unicode="&#x2013;" 
d="M520 305h-440v55h440v-55z" />
    <glyph glyph-name="emdash" unicode="&#x2014;" horiz-adv-x="700" 
d="M620 305h-540v55h540v-55z" />
    <glyph glyph-name="quoteleft" unicode="&#x2018;" horiz-adv-x="280" 
d="M185 720l-32 -240h-75l57 240h50z" />
    <glyph glyph-name="quoteright" unicode="&#x2019;" horiz-adv-x="290" 
d="M197 720l-68 -245h-49l42 245h75z" />
    <glyph glyph-name="quotesinglbase" unicode="&#x201a;" horiz-adv-x="281" 
d="M197 93l-68 -245h-49l42 245h75z" />
    <glyph glyph-name="quotedblleft" unicode="&#x201c;" horiz-adv-x="402" 
d="M334 720l-42 -245h-75l68 245h49zM187 720l-42 -245h-75l68 245h49z" />
    <glyph glyph-name="quotedblright" unicode="&#x201d;" horiz-adv-x="402" 
d="M334 720l-67 -245h-50l42 245h75zM187 720l-68 -245h-49l42 245h75z" />
    <glyph glyph-name="quotedblbase" unicode="&#x201e;" horiz-adv-x="402" 
d="M340 93l-68 -245h-49l42 245h75zM192 93l-68 -245h-49l42 245h75z" />
    <glyph glyph-name="dagger" unicode="&#x2020;" horiz-adv-x="523" 
d="M468 446h-177v-446h-59v446h-177v54h177v220h59v-220h177v-54z" />
    <glyph glyph-name="daggerdbl" unicode="&#x2021;" horiz-adv-x="523" 
d="M468 225h-177v-225h-59v225h-177v53h177v169h-177v53h177v220h59v-220h177v-53h-177v-169h177v-53z" />
    <glyph glyph-name="bullet" unicode="&#x2022;" horiz-adv-x="270" 
d="M201 267h-131v145h131v-145z" />
    <glyph glyph-name="ellipsis" unicode="&#x2026;" horiz-adv-x="797" 
d="M702 0h-76v93h76v-93zM436 0h-76v93h76v-93zM171 0h-76v93h76v-93z" />
    <glyph glyph-name="perthousand" unicode="&#x2030;" horiz-adv-x="1142" 
d="M1117 178q0 -93 -46 -140.5t-110 -47.5q-66 0 -110.5 47t-44.5 141q0 93 45 140t110 47q67 0 111.5 -46.5t44.5 -140.5zM761 178q0 -93 -45.5 -140.5t-109.5 -47.5q-66 0 -111 47t-45 141q0 93 45 140t110 47q67 0 111.5 -46.5t44.5 -140.5zM583 720l-320 -720h-60
l320 720h60zM336 536q0 -93 -45.5 -140.5t-109.5 -47.5q-66 0 -111 47t-45 141q0 93 45 140t110 47q67 0 111.5 -46.5t44.5 -140.5zM1059 178q0 70 -28.5 103t-69.5 33t-69.5 -33t-28.5 -103t29 -103.5t69 -33.5q41 0 69.5 33t28.5 104zM704 178q0 70 -29 103t-70 33
q-40 0 -68.5 -32.5t-28.5 -103.5q0 -70 29 -103.5t69 -33.5q41 0 69.5 33t28.5 104zM278 536q0 70 -28.5 103t-69.5 33q-40 0 -68.5 -32.5t-28.5 -103.5q0 -70 29 -103.5t69 -33.5q41 0 69 33t28 104z" />
    <glyph glyph-name="guilsinglleft" unicode="&#x2039;" horiz-adv-x="350" 
d="M246 112h-50l-106 227l106 227h50l-86 -227z" />
    <glyph glyph-name="guilsinglright" unicode="&#x203a;" horiz-adv-x="350" 
d="M251 339l-107 -227h-49l85 227l-85 227h49z" />
    <glyph glyph-name="fraction" unicode="&#x2044;" horiz-adv-x="196" 
d="M296 810l-338 -910h-58l338 910h58z" />
    <glyph glyph-name="Euro" unicode="&#x20ac;" horiz-adv-x="635" 
d="M598 620l-30 -49q-66 51 -139 51q-83 0 -138 -47.5t-76 -134.5h316l-12 -55h-314q-3 -25 -3 -54q0 -27 3 -51h295l-13 -55h-273q21 -91 76 -139t130 -48q80 0 155 44v-62q-71 -36 -155 -36q-104 0 -176.5 62.5t-96.5 178.5h-105l14 55h83q-2 32 -2 50q0 28 3 55h-97
l13 55h93q25 109 97.5 172.5t182.5 63.5q57 0 94.5 -14.5t74.5 -41.5z" />
    <glyph glyph-name="trademark" unicode="&#x2122;" horiz-adv-x="825" 
d="M770 297h-55v371q-19 -64 -30 -95l-99 -276h-47l-100 276l-30 92v-368h-54v373h-130v-373h-57v373h-123v50h399l95 -273l24 -78q15 50 25 78l95 273h87v-423z" />
    <glyph glyph-name="Omega" unicode="&#x2126;" horiz-adv-x="601" 
d="M586 402q0 -220 -177 -289v-60h163v-53h-220v147q170 49 170 255q0 127 -66 196t-157 69q-87 0 -153.5 -69.5t-66.5 -195.5q0 -202 156 -258v-144h-210v53h154v60q-164 72 -164 289q0 145 82.5 232t203.5 87q123 0 204 -87t81 -232z" />
    <glyph glyph-name="partialdiff" unicode="&#x2202;" horiz-adv-x="509" 
d="M464 288q0 -155 -58 -229.5t-159 -74.5q-86 0 -141.5 64t-55.5 156q0 97 51.5 155t133.5 58q98 0 165 -84q-2 121 -50.5 205.5t-135.5 84.5q-56 0 -107 -33l-26 48q67 38 128 38q125 0 190 -106.5t65 -281.5zM402 276q-66 89 -154 89q-59 0 -96.5 -42t-37.5 -120
q0 -82 41 -125t96 -43q68 0 109 60.5t42 180.5z" />
    <glyph glyph-name="Delta" unicode="&#x2206;" horiz-adv-x="640" 
d="M620 0h-600l282 720h58zM536 56l-207 586l-224 -586h431z" />
    <glyph glyph-name="product" unicode="&#x220f;" horiz-adv-x="567" 
d="M521 665h-74v-865h-60v865h-220v-865h-60v865h-82v55h496v-55z" />
    <glyph glyph-name="summation" unicode="&#x2211;" horiz-adv-x="524" 
d="M469 -200h-409v45l225 417l-212 412v46h385v-56h-311l206 -402l-220 -407h336v-55z" />
    <glyph glyph-name="minus" unicode="&#x2212;" horiz-adv-x="560" 
d="M480 305h-400v55h400v-55z" />
    <glyph glyph-name="uni2215" unicode="&#x2215;" horiz-adv-x="196" 
d="M296 810l-338 -910h-58l338 910h58z" />
    <glyph glyph-name="uni2219" unicode="&#x2219;" horiz-adv-x="270" 
d="M176 287h-81v95h81v-95z" />
    <glyph glyph-name="radical" unicode="&#x221a;" horiz-adv-x="556" 
d="M539 755h-77l-207 -756h-79l-146 393h65l118 -327l206 745h120v-55z" />
    <glyph glyph-name="infinity" unicode="&#x221e;" horiz-adv-x="655" 
d="M629 345q0 -64 -42.5 -110t-115.5 -46q-89 0 -143 103q-57 -103 -142 -103q-76 0 -118 45.5t-42 110.5q0 64 43 108.5t117 44.5q47 0 85 -30t58 -71q53 101 142 101q75 0 116.5 -44.5t41.5 -108.5zM575 345q0 51 -27.5 80t-76.5 29q-39 0 -71 -30.5t-50 -78.5
q20 -49 51.5 -80t69.5 -31q47 0 75.5 30t28.5 81zM307 345q-19 46 -51 77.5t-70 31.5q-49 0 -77.5 -30t-28.5 -79t29.5 -80t76.5 -31q40 0 71.5 32.5t49.5 78.5z" />
    <glyph glyph-name="uni2224" unicode="&#x2224;" horiz-adv-x="270" 
d="M176 287h-81v95h81v-95z" />
    <glyph glyph-name="uni2227" unicode="&#x2227;" horiz-adv-x="270" 
d="M176 287h-81v95h81v-95z" />
    <glyph glyph-name="integral" unicode="&#x222b;" horiz-adv-x="401" 
d="M391 795l-19 -51q-23 10 -44 10q-52 0 -74.5 -27t-22.5 -82v-615q0 -195 -206 -234l-10 54q155 28 155 171v620q0 167 161 167q28 0 60 -13z" />
    <glyph glyph-name="approxequal" unicode="&#x2248;" 
d="M512 403q-58 -56 -126 -56q-35 0 -85 23.5t-83 23.5q-31 0 -49.5 -9t-48.5 -34l-32 45q65 54 130 54q40 0 91.5 -23.5t80.5 -23.5q43 0 87 41zM512 253q-57 -55 -126 -55q-35 0 -85 23t-83 23q-31 0 -50 -9t-48 -33l-32 44q67 55 130 55q40 0 91.5 -24t80.5 -24
q43 0 87 41z" />
    <glyph glyph-name="notequal" unicode="&#x2260;" 
d="M513 205h-258l-91 -157l-55 8l86 149h-108v55h141l83 145h-224v55h257l93 161l55 -9l-88 -152h109v-55h-142l-83 -145h225v-55z" />
    <glyph glyph-name="lessequal" unicode="&#x2264;" 
d="M510 139l-420 180v56l420 184v-65l-350 -144l350 -145v-66zM510 0h-420v56h420v-56z" />
    <glyph glyph-name="greaterequal" unicode="&#x2265;" 
d="M510 319l-420 -180v66l350 145l-350 144v65l420 -184v-56zM510 0h-420v56h420v-56z" />
    <glyph glyph-name="uni22C5" unicode="&#x22c5;" horiz-adv-x="270" 
d="M176 287h-81v95h81v-95z" />
    <glyph glyph-name="uni25AF" unicode="&#x25af;" horiz-adv-x="530" 
d="M77 0v705h376v-705h-376zM133 56h264v593h-264v-593z" />
    <glyph glyph-name="lozenge" unicode="&#x25ca;" horiz-adv-x="586" 
d="M566 361l-253 -361h-54l-239 361l239 359h55zM497 361l-210 299l-200 -299l200 -299z" />
    <glyph glyph-name="fi" unicode="&#xfb01;" horiz-adv-x="509" 
d="M429 0h-61v449h-206v-449h-61v449h-86v51h86v53q0 80 41 123.5t124 43.5q67 0 124 -25l-18 -51q-62 22 -109 22q-53 0 -77 -27t-24 -81v-58h267v-500z" />
    <glyph glyph-name="fl" unicode="&#xfb02;" horiz-adv-x="517" 
d="M437 0h-61v642q-60 24 -114 24q-53 0 -76.5 -27t-23.5 -81v-58h122v-51h-122v-449h-61v449h-86v51h86v53q0 167 164 167q58 0 113 -21l59 21v-720z" />
    </font>
</defs>
</svg>
